<svg width="201" height="29" viewBox="0 0 201 29" fill="none" xmlns="http://www.w3.org/2000/svg">
<path d="M46.2374 27.9249C43.4211 27.9249 40.9079 27.3187 38.6978 26.1063C36.4878 24.8939 34.7399 23.2648 33.4568 21.2138C32.1737 19.1654 31.5322 16.8568 31.5322 14.2906C31.5322 11.7244 32.1737 9.41577 33.4568 7.36734C34.7399 5.31891 36.4852 3.68724 38.6978 2.47485C40.9079 1.26246 43.4211 0.65625 46.2374 0.65625H49.4452V4.87942H46.0757C44.2571 4.87942 42.6281 5.2987 41.1833 6.13727C39.7386 6.97584 38.5994 8.10739 37.7608 9.53194C36.9222 10.959 36.5029 12.5453 36.5029 14.2906C36.5029 16.0359 36.9222 17.6246 37.7608 19.0492C38.5968 20.4763 39.7386 21.6078 41.1833 22.4439C42.6281 23.2824 44.2571 23.6992 46.0757 23.6992H49.4452V27.9224H46.2374V27.9249Z" fill="#00205B"/>
<path d="M140.377 28.2447C137.384 28.2447 134.727 27.684 132.411 26.56C130.092 25.436 128.284 23.8524 126.983 21.8014C125.682 19.753 125.03 17.356 125.03 14.6104C125.03 11.8648 125.583 9.46788 126.687 7.31084C127.791 5.1538 129.324 3.45391 131.287 2.20363C133.247 0.955884 135.528 0.332031 138.132 0.332031C140.948 0.332031 143.292 0.938213 145.163 2.1506C147.035 3.36299 148.434 4.99466 149.361 7.04309C150.288 9.09404 150.751 11.3824 150.751 13.9133C150.751 14.3048 150.74 14.7165 150.723 15.1434C150.705 15.5702 150.66 15.9466 150.589 16.2673H130.271C130.448 17.9445 131.001 19.3589 131.928 20.5183C132.855 21.6776 134.04 22.549 135.485 23.1375C136.929 23.726 138.523 24.019 140.271 24.019H147.384V28.2422H140.38L140.377 28.2447ZM145.671 11.3016C145.641 11.0717 145.608 10.8596 145.565 10.6272C145.421 9.86191 145.171 9.11174 144.817 8.38178C144.461 7.65182 143.989 6.99257 143.4 6.40405C142.812 5.81554 142.082 5.34322 141.208 4.98708C140.334 4.63094 139.311 4.45161 138.134 4.45161C136.886 4.45161 135.79 4.69156 134.846 5.17398C133.901 5.65389 133.09 6.29797 132.413 7.09865C131.736 7.90186 131.218 8.80106 130.862 9.79875C130.68 10.3064 130.541 10.7914 130.433 11.3016H145.674H145.671Z" fill="#00205B"/>
<path d="M189.639 28.2447C186.646 28.2447 183.988 27.684 181.672 26.56C179.354 25.436 177.545 23.8524 176.244 21.8014C174.944 19.753 174.292 17.356 174.292 14.6104C174.292 11.8648 174.845 9.46788 175.949 7.31084C177.053 5.1538 178.586 3.45391 180.548 2.20363C182.508 0.955884 184.789 0.332031 187.393 0.332031C190.21 0.332031 192.554 0.938213 194.425 2.1506C196.297 3.36299 197.696 4.99466 198.623 7.04309C199.55 9.09404 200.012 11.3824 200.012 13.9133C200.012 14.3048 200.002 14.7165 199.984 15.1434C199.967 15.5702 199.921 15.9466 199.851 16.2673H179.533C179.71 17.9445 180.263 19.3589 181.19 20.5183C182.117 21.6776 183.301 22.549 184.746 23.1375C186.191 23.726 187.785 24.019 189.533 24.019H196.645V28.2422H189.641L189.639 28.2447ZM194.933 11.3016C194.903 11.0717 194.87 10.8596 194.827 10.6272C194.683 9.86191 194.433 9.11174 194.079 8.38178C193.723 7.65182 193.251 6.99257 192.662 6.40405C192.074 5.81554 191.344 5.34322 190.47 4.98708C189.596 4.63094 188.573 4.45161 187.396 4.45161C186.148 4.45161 185.052 4.69156 184.107 5.17398C183.163 5.65389 182.352 6.29797 181.675 7.09865C180.998 7.90186 180.48 8.80106 180.124 9.79875C179.942 10.3064 179.803 10.7914 179.695 11.3016H194.935H194.933Z" fill="#00205B"/>
<path d="M168.269 27.9249C165.453 27.9249 162.939 27.3187 160.729 26.1063C158.519 24.8939 156.771 23.2648 155.488 21.2138C154.205 19.1654 153.563 16.8568 153.563 14.2906C153.563 11.7244 154.205 9.41577 155.488 7.36734C156.771 5.31891 158.517 3.68724 160.729 2.47485C162.939 1.26246 165.453 0.65625 168.269 0.65625H171.476V4.87942H168.107C166.289 4.87942 164.659 5.2987 163.215 6.13727C161.77 6.97584 160.631 8.10739 159.792 9.53194C158.954 10.959 158.534 12.5453 158.534 14.2906C158.534 16.0359 158.954 17.6246 159.792 19.0492C160.628 20.4763 161.77 21.6078 163.215 22.4439C164.659 23.2824 166.289 23.6992 168.107 23.6992H171.476V27.9224H168.269V27.9249Z" fill="#00205B"/>
<path d="M115.367 0.717372C115.352 0.717372 115.334 0.717372 115.319 0.717372C113.048 0.730001 110.977 2.01309 109.833 3.97564L101.331 18.5496V9.1763C101.331 4.69804 97.8478 0.881524 93.372 0.722398C88.6715 0.555694 84.8096 4.31664 84.8096 8.97928V27.8673H89.6743V8.63072C89.6743 6.97631 91.013 5.63764 92.6674 5.63764C94.3219 5.63764 95.6604 6.97884 95.6604 8.63072V19.7872L95.6782 19.7922C95.6782 22.4822 97.8605 24.6595 100.55 24.6595C102.339 24.6595 103.9 23.6972 104.748 22.2625L113.657 6.8879C114.127 6.04933 114.672 5.65531 115.357 5.65531C116.832 5.65531 117.299 6.51662 117.299 7.88056V27.8647H122.214V8.97675C122.214 4.41514 119.928 0.714844 115.367 0.714844V0.717372Z" fill="#00205B"/>
<path d="M81.436 13.4714C81.3451 11.4684 80.8501 9.48061 79.9383 7.69739C79.9358 7.70497 79.9408 7.68981 79.9383 7.69739C78.5845 5.03014 76.4552 2.88574 73.7981 1.52433C73.8031 1.52433 73.8056 1.5218 73.8106 1.51927C69.6885 -0.506424 64.5663 -0.506424 60.4467 1.51927C60.4517 1.51927 60.4542 1.5218 60.4593 1.52433C57.8021 2.88574 55.6728 5.03266 54.319 7.69739C54.3165 7.68981 54.3215 7.70497 54.319 7.69739C50.9723 14.2443 53.248 23.072 59.7242 26.6688C69.4991 32.2963 82.3403 25.1078 81.4386 13.4714H81.436ZM62.2348 5.57574C73.8763 -0.834765 82.0499 16.121 72.0199 23.0063C60.3557 29.384 52.2049 12.5343 62.2348 5.57574Z" fill="#00205B"/>
<path d="M23.2968 12.4547C23.2741 12.24 23.3423 12.0253 23.4913 11.8687C27.3356 7.86529 28.0605 3.30116 28.1944 1.48005C28.2272 1.03551 27.8559 0.666747 27.4114 0.697057C25.5928 0.830925 21.0262 1.55583 17.0228 5.40011C16.8662 5.54913 16.6515 5.61733 16.4368 5.5946C15.3532 5.47841 11.8221 5.52894 8.82399 10.4366C8.66992 10.6917 8.8619 11.015 9.15994 10.9948L12.5142 10.7776C12.6101 10.7725 12.6758 10.8735 12.6303 10.9594L11.2589 13.4549C11.1806 13.5989 11.2059 13.7757 11.3221 13.8919L14.9996 17.5695C15.1158 17.6857 15.2926 17.7109 15.4366 17.6326L17.9321 16.2611C18.0154 16.2156 18.1189 16.2788 18.1139 16.3773L17.8967 19.7315C17.8765 20.0296 18.2023 20.2241 18.4549 20.0675C23.3625 17.0694 23.413 13.5408 23.2968 12.4547Z" fill="#00205B"/>
<path d="M10.8642 18.0463C10.8238 18.0059 10.7834 17.968 10.743 17.9326C9.25025 16.5838 6.87094 17.0309 5.88083 18.7813L1.04134 27.3236C0.841801 27.6772 1.23328 28.0712 1.58942 27.8717L10.1318 23.0322C11.8822 22.0396 12.3292 19.6628 10.9804 18.1701C10.9425 18.1297 10.9046 18.0892 10.8667 18.0488L10.8642 18.0463Z" fill="#00205B"/>
</svg>
